<?xml version="1.0" encoding="UTF-8"?>
<svg xmlns="http://www.w3.org/2000/svg" viewBox="0 0 2008.68 235.48">
  <defs>
    <style>
      .cls-1 {
        fill: #be2227;
        font-size: 209px;
        letter-spacing: -.02em;
      }

      .cls-2 {
        font-family: Algerian, Algerian;
      }

      .cls-3 {
        letter-spacing: -.02em;
      }

      .cls-3, .cls-4 {
        fill: #4a2115;
        font-size: 127.23px;
      }

      .cls-4 {
        letter-spacing: -.03em;
      }

      .cls-5 {
        font-size: 215.49px;
        letter-spacing: -.03em;
      }

      .cls-5, .cls-6 {
        fill: #bf2026;
      }

      .cls-7 {
        fill: none;
        stroke: #bf2026;
        stroke-linecap: round;
        stroke-miterlimit: 10;
        stroke-width: 5px;
      }

      .cls-6 {
        stroke-width: 0px;
      }
    </style>
  </defs>
  <g id="Layer_3" data-name="Layer 3">
    <path class="cls-6" d="M1906.39,112.8c-11.64,15.49-20.3,33.54-15.93,53.27,1.26,6.2,3.77,12.1,6.9,17.66l-1.52-.62c12.11-3.15,23.85-11.58,27.25-24.15-1.9,13.47-14.03,23.16-26.53,26.75,0,0-.97.28-.97.28-3.72-5.9-6.56-12.41-8.05-19.3-4.53-19.94,5.08-39.92,18.87-53.9h0Z"/>
    <path class="cls-6" d="M1911.59,105.62c-12.13-2.59-26.4-7.17-31.44-19.76-3.18-8.57-.11-18.22,5.67-24.97,3.03-3.24,6.58-5.99,10.54-8.06,8.89-4.82,19.2-3.48,25.23,5.07,4.23,7.07,5.92,15.29,6.54,23.35.61,7.94.25,15.8-.33,23.58-1.58,10.45-1.29,21.19,1.8,31.16,4.5,14.22,14.89,28.53,28.81,34.7,14.1,5.91,31.46,5.39,44.63-2.52,0,0-1.17,1.64-1.17,1.64,4.13-19.04,2.14-40.92-8.74-57.5-8.74-12.48-24.14-18.68-39.14-18.18-5.09.06-10.19.62-15.24,1.54,4.97-1.26,10.04-2.24,15.19-2.61,15.63-1.52,32.32,4.48,41.93,17.26,12.18,16.76,15.17,40.65,11.08,60.64,0,0-.22,1.04-.22,1.04l-.94.6c-9.78,6.15-21.57,8.47-32.99,7.54-18.68-1.54-31.9-11.32-41.8-26.88-9.16-14.44-11.7-32.6-8.77-49.17,1.11-13.61,2.37-30.55-4.59-43.65-1.28-2.05-5.25-5.54-8.56-5.89-6.52-1.24-13.49,2.53-18.52,6.69-3.85,3.07-6.59,7.47-8.07,12.2-5.71,18.48,14.31,28.24,29.1,32.19h0Z"/>
    <path class="cls-6" d="M1941.33,76.07c9.27-6.81,19.92-12.21,31.5-13.73,11.65-1.67,23.95,1.55,33.37,8.56,0,0,.93.68.93.68-1.41,2.97-3.03,5.87-5.08,8.47-5.25,7.06-13.75,11.44-22.51,11.69,5.53-1.06,10.86-3.29,15.12-6.94,4.23-3.6,7.27-8.33,9.54-13.37,0,0,.45,1.67.45,1.67-20.54-14.11-43.01-8.23-63.31,2.96h0Z"/>
    <path class="cls-7" d="M1901.53,50.87s-5.51-15.23,7.18-22.31"/>
    <path class="cls-7" d="M1859.08,91.03s.94-12.02,19.6-9.57"/>
  </g>
  <g id="Layer_4" data-name="Layer 4">
    <path class="cls-6" d="M1946.14,167.8c10.39-6.86,20.42-13.68,29.79-21.79,9.24-8.26,16.64-18.31,22.27-29.37,0,0,.37.16.37.16-4.56,11.72-11.55,22.54-20.41,31.51-5.44,5.77-11.55,10.98-18.59,14.69-4.23,2.2-8.59,4.15-13.28,5.17l-.14-.37h0Z"/>
    <path class="cls-6" d="M1971.71,174c2.82-2.15,6.78-5.18,9.47-7.36,3.01-2.49,6.3-4.65,9.11-7.43,4.23-4.11,7.93-8.96,10.81-14.13.92-1.52,1.88-3.8,2.71-5.39,0,0,.38.13.38.13-2.09,7.39-5.67,14.44-10.54,20.41-3.65,4.39-7.64,8.71-12.87,11.23-2.82,1.4-5.75,2.57-8.92,2.92,0,0-.14-.38-.14-.38h0Z"/>
    <path class="cls-6" d="M1936.23,153.58c6.46-4.06,12.47-8.25,18.51-12.71,8.53-6.08,16.28-13.05,22.29-21.71,3.66-4.77,6.38-10.16,9.01-15.6l.37.14c-2.05,5.7-4.43,11.39-7.72,16.57-3.13,5.17-7.08,10.21-11.26,14.56-6.25,6.83-13.66,12.7-22.26,16.28-2.83,1.22-5.75,2.26-8.8,2.86l-.14-.38h0Z"/>
    <path class="cls-6" d="M1927.12,137.38c7.09-3.62,13.63-7.92,20.13-12.44,3.14-2.11,6.45-4.79,9.14-7.46,1.68-1.51,3.9-4.06,5.48-5.72.8-1,2.95-3.67,3.75-4.64.84-1.11,2.62-3.74,3.45-4.89,1.31-1.91,2.94-4.87,4.19-6.84,0,0,.36.17.36.17-1.15,2.42-2.21,4.92-3.49,7.29-1.19,2.06-2.78,5.07-4.15,6.98,0,0-2.29,3.37-2.29,3.37l-2.52,3.21c-5.26,6.26-11.11,12.29-18.33,16.32-4.84,2.6-10.1,4.65-15.62,5.02,0,0-.09-.39-.09-.39h0Z"/>
  </g>
  <g id="Layer_5" data-name="Layer 5">
    <text class="cls-2" transform="translate(0 179.61) scale(1.18 1)"><tspan class="cls-5" x="0" y="0">B</tspan><tspan class="cls-3" x="133.92" y="0">read, </tspan><tspan class="cls-5" x="512.99" y="0">B</tspan><tspan class="cls-3" x="646.91" y="0">eer </tspan><tspan class="cls-1" x="904.98" y="0">&amp;</tspan><tspan class="cls-4" x="1067.32" y="0"> </tspan><tspan class="cls-5" x="1095.95" y="0">B</tspan><tspan class="cls-3" x="1229.87" y="0">rez’n</tspan></text>
  </g>
</svg>